<svg width="580" height="400" xmlns="http://www.w3.org/2000/svg">
 <!-- Created with SVG Editor - http://github.com/mzalive/SVG Editor/ -->
 <g>
  <title>background</title>
  <rect fill="#fff" id="canvas_background" height="402" width="582" y="-1" x="-1"/>
  <g display="none" overflow="visible" y="0" x="0" height="100%" width="100%" id="canvasGrid">
   <rect fill="url(#gridpattern)" stroke-width="0" y="0" x="0" height="100%" width="100%"/>
  </g>
 </g>
 <g>
  <title>Layer 1</title>
  <path stroke="#000" d="m6.5,5.453125c0,1 0,2 0,3c0,1 0,3 0,4c0,1 0,2 0,3c0,1 0,2 0,3c0,1 0,2 0,3c0,1 0,2 0,3l0,1" id="svg_1" stroke-width="1.5" fill="none"/>
  <path d="m6.829296,6.562531c0.487805,0 0.487804,0.487805 0.975609,0.97561c0.487805,0.487804 1.118484,0.63068 1.463414,0.97561c0.68986,0.68986 0.142876,1.118484 0.487805,1.463414c0.34493,0.34493 0.524937,0.301129 0.97561,0.487804c0.637347,0.263998 1.199416,0.826067 1.463414,1.463415c0.186674,0.450672 0.301129,0.524937 0.487804,0.97561c0.263998,0.637347 0.630679,1.118484 0.97561,1.463414c0.344931,0.344931 0.711612,0.338262 0.97561,0.97561c0.186674,0.450672 0.630679,0.630678 0.97561,0.975609c0.34493,0.344931 0.487805,0.487804 0.487805,0.975611c0,0.487804 0.142874,0.630678 0.487804,0.975609c0.344931,0.344931 0.630678,0.142874 0.975609,0.487804c0.344931,0.344931 0.142874,0.63068 0.487804,0.975611c0.344931,0.344931 0,0.975609 0,1.463413c0,0.487804 0,0.975611 0,1.463415c0,0.487804 0,0.975609 0,1.463413l0.487806,0" id="svg_2" fill-opacity="null" stroke-opacity="null" stroke-width="1.5" stroke="#000" fill="none"/>
  <path d="m26.341488,17.294237c0.487804,0 0.826067,0.223806 1.463415,0.487804c0.450672,0.186674 0.975609,0 1.951218,0c0.487806,0 0.975611,0 1.463415,0c0.487804,0 0.630678,-0.142874 0.975609,-0.487804c0.344929,-0.344931 1.060047,-0.415966 1.463417,-0.975611c0.637783,-0.884872 0.63068,-1.118484 0.975609,-1.463414c0.344929,-0.34493 -0.344929,-1.118484 0,-1.463414c0.344929,-0.34493 0.142876,-0.630679 0.487804,-0.97561c0.344929,-0.34493 0.832733,-0.630679 0.487804,-0.97561c-0.344929,-0.34493 -0.975609,0 -1.463413,0c-0.487804,0 -0.826069,0.223807 -1.463417,0.487805c-0.450672,0.186675 -1.118483,0.142875 -1.463413,0.487804c-0.344931,0.344931 -0.711611,0.338263 -0.975609,0.97561c-0.186674,0.450672 -0.487806,0.97561 -0.487806,1.463414c0,0.487805 -0.487804,0.97561 -0.487804,1.463414c0,0.487804 0,0.975611 0,1.463415c0,0.487804 0.223806,0.826067 0.487804,1.463413c0.186676,0.450674 0.142876,0.63068 0.487806,0.975611c0.344931,0.344931 0,0.975609 0.487804,1.463413c0.487804,0.487806 0.826067,0.711613 1.463413,0.975611c0.450672,0.186674 0.975609,0 1.463417,0c0.487804,0 0.975609,0 1.463413,0c0.487804,0 0.975609,0 1.463413,0c0.487804,0 0.975609,0 1.463413,0c0.487808,0 0.487808,-0.487804 0.975613,-0.487804c0.487804,0 0.142876,-0.63068 0.487804,-0.975611c0.344929,-0.344931 0.63068,-0.142874 0.975609,-0.487804c0.344929,-0.344931 0.487804,-0.487804 0.487804,-0.975609c0,-0.487806 0.487804,-0.487806 0.487804,-0.975611l0.487804,0l0,-0.487804" id="svg_3" fill-opacity="null" stroke-opacity="null" stroke-width="1.5" stroke="#000" fill="none"/>
  <path d="m28.292707,5.099116c0,-0.487805 0.487804,-0.487805 0,-0.487805c-0.487804,0 -1.320541,-0.142875 -0.975611,-0.487805c0.344931,-0.344931 0.975611,0 1.463415,0l0,0.487805l0,0.487805" id="svg_4" fill-opacity="null" stroke-opacity="null" stroke-width="1.5" stroke="#000" fill="none"/>
  <path d="m36.585388,4.611311c0,-0.487805 -0.149544,-1.199416 0.487804,-1.463414c0.450672,-0.186675 1.118484,-0.344933 1.463417,0c0.344929,0.34493 0,0.97561 0,1.463414c0,0.487805 0,0.97561 -0.487808,0.97561c-0.487804,0 -1.118484,0.34493 -1.463413,0c-0.344929,-0.34493 0,-0.97561 -0.487804,-0.97561l0,-0.487805l0,-0.487805" id="svg_5" fill-opacity="null" stroke-opacity="null" stroke-width="1.5" stroke="#000" fill="none"/>
  <path d="m50.731728,6.562531c0,0.487805 0,0.97561 0,1.463414c0,0.487805 0,0.97561 0,1.463415c0,0.487804 0,0.975609 0,1.951219c0,0.487805 0,0.97561 0,1.463415c0,0.975609 0,1.463414 0,1.951219c0,0.487805 -0.142876,0.63068 -0.487804,0.97561c-0.344929,0.344931 0,0.975609 0,1.463415c0,0.487804 -0.223808,0.149542 -0.487804,-0.487806c-0.186676,-0.450672 -0.223808,-1.31387 -0.487804,-1.951219c-0.186676,-0.450672 0,-1.463414 0,-1.951219c0,-0.487805 -0.237198,-0.889634 -0.487804,-1.95122c-0.112076,-0.474756 0,-0.97561 0,-1.95122c0,-0.487804 0,-0.97561 0,-1.463414c0,-0.487805 0.142876,-0.63068 0.487804,-0.97561c0.344929,-0.34493 0.487804,-0.487805 0.975609,-0.487805c0.487804,0 0.524937,-0.30113 0.975609,-0.487804c0.637348,-0.263998 0.975609,-0.487805 1.463413,-0.487805c0.487808,0 0.975613,0 1.463417,0c0.487804,0 0.711613,0.338262 0.975609,0.975609c0.186676,0.450673 0.487804,0.97561 0.487804,1.463415c0,0.487804 0,0.97561 0,1.463414c0,0.487805 0.149544,1.199416 -0.487804,1.463414c-0.450672,0.186675 -1.049873,0.602262 -1.951218,0.97561c-0.637352,0.263998 -0.52494,0.788935 -0.975613,0.97561c-0.637348,0.263998 -1.463413,0.000001 -1.463413,0.487805c0,0.487804 0.975609,0 1.463413,0c0.487804,0 1.463417,0 1.951221,0c0.487804,0 1.500546,-0.186675 1.951218,0c0.637348,0.263998 0.63068,0.630679 0.975609,0.975609c0.344929,0.344931 -0.186676,1.012742 0,1.463415c0.264,0.637349 0.487808,0.975609 0.487808,1.463413c0,0.487806 0,0.975611 0,1.463415c0,0.487804 -0.142879,0.630678 -0.487808,0.975609c-0.344929,0.344931 -0.487804,0.487806 -0.975609,0.487806c-0.487804,0 -1.012741,0.186676 -1.463413,0c-0.637348,-0.263998 -0.826065,-0.711613 -1.463413,-0.975611c-0.450676,-0.186676 -1.377773,-0.04775 -1.951221,-0.975609c-0.256454,-0.414951 -0.487804,-0.487804 -0.975609,-0.975611l0,-0.487804l-0.487804,0l-0.487804,0" id="svg_6" fill-opacity="null" stroke-opacity="null" stroke-width="1.5" stroke="#000" fill="none"/>
  <path stroke="#000" d="m71.097576,4.611311c-0.560971,0 -0.174309,1.014758 -0.560971,2.439024c-0.288202,1.061587 -0.189321,1.614639 -1.12195,2.926829c-0.417089,0.586832 -0.560979,1.95122 -0.560979,2.926829c0,0.975609 -0.560971,2.439024 -0.560971,2.926828c0,1.463415 0,1.95122 0,2.926828c0,0.487804 0,1.463415 0,1.95122c0,0.975609 0,1.463415 0,1.95122c0,0.487804 0,0.975609 0,0.487804c0,-0.487804 0,-1.463415 0,-1.95122c0,-0.975609 0,-1.463413 0,-2.439024c0,-0.975609 0,-2.439024 0,-3.414633c0,-0.97561 0.560971,-2.439024 0.560971,-3.414634c0,-0.97561 0.560979,-1.95122 0.560979,-2.926829c0,-0.97561 0,-1.951219 0,-2.926829c0,-0.487804 0,-1.463414 0,-1.951219c0,-0.487805 -0.396672,-0.832735 0,-0.487805c0.396664,0.344927 0.81835,0.33826 1.12195,0.97561c0.214677,0.450673 0.560971,0.975608 1.12195,1.463414c0.560971,0.487803 0.388495,1.066346 1.12195,1.951219c0.46388,0.559645 1.12195,0.975608 1.68293,1.95122c0.560971,0.975608 1.682921,1.951218 2.2439,2.439024c0.560971,0.487803 0.907273,1.500546 1.12195,1.95122c0.303591,0.637345 1.12195,0.487804 1.12195,0.97561l0,0.487804l0.560979,0.487804" id="svg_7" fill-opacity="null" stroke-opacity="null" stroke-width="1.5" fill="none"/>
  <path d="m62.439045,14.367408c0.487804,0 0.975609,0 1.463413,0c0.975609,0 1.500549,0.186672 1.951218,0c0.637352,-0.263998 1.463417,-0.487805 1.951218,-0.487805c0.975609,0 1.463417,0 2.439026,0c0.975609,0 1.313873,-0.223806 1.951218,-0.487804c0.901344,-0.373351 1.463417,0 1.951225,0c0.975609,0 1.606285,0.344933 1.951218,0c0.344933,-0.34493 0.630676,-0.142872 0.975609,-0.487804c0.344933,-0.344931 0.487801,-0.487805 0.975609,-0.487805l0.487801,0l0.487808,0l0,-0.487804" id="svg_8" fill-opacity="null" stroke-opacity="null" stroke-width="1.5" stroke="#000" fill="none"/>
  <path d="m89.756111,15.343018c0,0.487804 -0.186676,1.012741 0,1.463413c0.264,0.63735 0.487808,0.975611 0.487808,1.463415c0,0.487804 0,0.975609 0,1.463415c0,0.487804 0,0.975609 0,1.463413c0,0.487804 0,0.975611 -0.487808,0.975611l-0.487801,0l-0.487808,0" id="svg_9" fill-opacity="null" stroke-opacity="null" stroke-width="1.5" stroke="#000" fill="none"/>
  <path d="m102.926842,3.635702c0,0.487805 0,1.463415 0,1.95122c0,0.487804 0,1.463414 0,2.439023c0,0.487805 0,0.97561 0,1.95122c0,0.487804 0,1.463414 0,2.439024c0,0.487805 0,1.463414 0,1.95122c0,0.97561 0,1.463414 0,1.951219l0,0.487804l0,0.487806" id="svg_10" fill-opacity="null" stroke-opacity="null" stroke-width="1.5" stroke="#000" fill="none"/>
  <path d="m102.439041,9.977164c0.487801,0 0.975609,0 1.463409,0c0.487808,0 0.975609,0 1.463417,0c0.487801,0 0.975609,0 1.463409,0c0.487808,0 0.975616,0 1.463417,0c0.487808,0 0.142876,0.630679 0.487808,0.97561c0.344925,0.344927 0.630676,0.142872 0.975609,0.487804c0.344933,0.344931 0,0.97561 0,1.463415c0,0.487804 0,0.975609 -0.487808,0.975609c-0.487801,0 -0.975609,0 -1.463409,0c-0.487808,0 -0.975616,0 -1.463417,0c-0.487808,0 -0.630676,0.142875 -0.975609,0.487805c-0.344933,0.344933 -0.975609,0 -1.463417,0c-0.487801,0 -0.975609,0 -1.463409,0c-0.487808,0 -0.975616,0 -1.463417,0l-0.487808,0" id="svg_12" fill-opacity="null" stroke-opacity="null" stroke-width="1.5" stroke="#000" fill="none"/>
  <path d="m102.926842,4.123507c0.487808,0 0.975609,0 1.463417,0c0.487801,0 0.975609,0 1.463409,0c0.487808,0 0.975609,0 1.463417,0c0.487808,0 1.012741,-0.186677 1.463417,0c0.637344,0.263999 0.975609,0.487805 1.463409,0.487805l0.487808,0l0.487801,0l0.487808,0" id="svg_13" fill-opacity="null" stroke-opacity="null" stroke-width="1.5" stroke="#000" fill="none"/>
  <path d="m118.536598,10.464969c0.487801,0 1.118484,-0.142878 1.463409,-0.487804c0.344933,-0.34493 0.142876,-0.630679 0.487808,-0.97561c0.344925,-0.344927 1.118484,-0.142872 1.463417,-0.487804c0.344933,-0.344931 0.142868,-0.63068 0.487801,-0.97561c0.344933,-0.344933 0.487808,-0.487805 0.487808,-0.97561c0,-0.487805 0.344933,-1.118484 0,-1.463414c-0.344933,-0.344933 -0.975609,0 -1.463417,0c-0.487808,0 -0.975609,0 -1.463417,0c-0.487801,0 -1.118484,-0.344927 -1.463409,0c-0.344933,0.34493 -0.487808,0.975609 -0.487808,1.463414c0,0.487805 -0.487801,0.97561 -0.487801,1.463414c0,0.97561 -0.487808,1.463415 -0.487808,1.95122c0,0.487804 0,0.97561 0,1.463414c0,0.487805 0,0.97561 0,1.463415c0,0.487804 0,0.975609 0.487808,0.975609c0.487801,0 0.975609,0 1.463409,0c0.487808,0 1.012741,0.186677 1.463417,0c0.637344,-0.263998 0.826065,-1.199416 1.463417,-1.463414c0.450668,-0.186672 0.630676,-0.142872 0.975609,-0.487804c0.344933,-0.344931 0.711609,-0.338261 0.975609,-0.97561c0.186676,-0.450673 0.487801,-0.487805 0.487801,-0.97561l0.487808,0" id="svg_14" fill-opacity="null" stroke-opacity="null" stroke-width="1.5" stroke="#000" fill="none"/>
  <path transform="rotate(3.0068986415863037 138.25120544433588,8.834300994872764) " d="m141.463425,5.586921c-0.487808,0 -0.630692,-0.142875 -0.975616,-0.487805c-0.344925,-0.344933 -0.975601,-0.487805 -1.463409,-0.487805c-0.487808,0 -0.975616,0 -1.463409,0c-0.487808,0 -0.975616,0 -1.463425,0c-0.487793,0 -0.975601,0.487805 -0.975601,0.97561c0,0.487804 -0.487808,0.975609 -0.487808,1.463414c0,0.487805 -0.487808,0.487805 -0.487808,0.975609c0,0.487805 -0.223801,0.826065 -0.487808,1.463415c-0.186676,0.450672 0,0.975609 0,1.463414c0,0.487804 0,0.97561 0,1.463414c0,0.487805 0.487808,0.487805 0.975616,0.487805c0.487808,0 1.118484,0.344922 1.463409,0c0.344925,-0.344931 0.338272,-0.711612 0.975616,-0.97561c0.901337,-0.373344 1.463409,-0.487805 1.951218,-0.487805c0.975601,0 1.476456,-0.37573 1.951218,-0.487804c1.0616,-0.250607 1.463409,-0.487805 1.951218,-0.487805l0,-0.487804" id="svg_15" fill-opacity="null" stroke-opacity="null" stroke-width="1.5" stroke="#000" fill="none"/>
  <path d="m148.784149,4.103343c0,0.151976 0,0.303951 0,0.607902c0,0.151976 0,0.303952 0,0.455927c0,0.303951 0,0.455927 0,0.911854c0,0.151976 0,0.455927 0,0.759878c0,0.455927 0,0.759878 0,1.063829c0,0.303952 0,0.759879 0,0.911854c0,0.303951 0,0.455927 0,0.607903c0,0.303951 0,0.455927 0,0.607903c0,0.151976 0,0.303951 0,0.455927c0,0.151976 -0.151978,0.303951 -0.151978,0.455927c0,0.151976 0,0.303951 0,0.455927c0,0.151976 0,0.303951 0,0.455927c0,0.151976 0,0.303951 0,0.455927c0,0.151976 0,0.303951 0,0.455927c0,0.151976 0,0.303951 0,0.455927c0,0.151976 0,0.303951 0,0.455927c0,0.151976 0,0.303951 0,0.455927c0,0.151976 0,0.303951 0,0.455927c0,0.151976 -0.151978,0.455927 0,0.455927c0.151978,0 0,-0.303951 0,-0.455927c0,-0.151976 0,-0.303951 0,-0.455927c0,-0.151976 0,-0.455927 0,-0.759878c0,-0.303951 0,-0.607903 0,-0.759878c0,-0.455927 -0.048691,-0.915779 0,-1.215805c0.076981,-0.474384 0.078949,-0.765765 0.151978,-1.215805c0.076981,-0.474384 0.078949,-0.765765 0.151978,-1.215805c0.076981,-0.474385 0.230927,-0.765764 0.303955,-1.215806c0.076981,-0.47438 0.129456,-0.794584 0.30394,-1.215805c0.082245,-0.198567 0.269043,-0.611968 0.303955,-0.759878c0.078079,-0.330738 0.22171,-0.561311 0.303955,-0.759878c0.058167,-0.140407 0,-0.303952 0.151978,-0.455927c0.151978,-0.151976 0.196487,-0.196498 0.30394,-0.303951c0.107468,-0.107463 0.151978,-0.303952 0.303955,-0.303952c0.151978,0 0.196487,-0.044513 0.303955,-0.151976c0.107468,-0.107464 0.303955,0 0.455933,0c0.151962,0 0.30394,0 0.607895,0c0.151978,0 0.303955,0 0.60791,0c0.151962,0 0.332214,-0.046726 0.607895,0.151976c0.174362,0.125669 0.25737,0.221703 0.455933,0.303952c0.140411,0.058159 0.30394,0.151976 0.455917,0.303951c0.151978,0.151975 0.348465,0.196487 0.455933,0.303951c0.107468,0.107463 0.093811,0.163544 0.151978,0.303951c0.082245,0.198567 0.151978,0.303951 0.151978,0.455927c0,0.151976 -0.058167,0.31552 0,0.455927c0.082245,0.198567 0.151978,0.303951 0.151978,0.455927c0,0.151976 0,0.303951 0,0.455927c0,0.303951 0.069717,0.409344 0.151962,0.607903c0.058151,0.140409 0,0.303951 0,0.455927c0,0.151976 0,0.303951 0,0.455926c0,0.151977 0,0.303952 0,0.607903c0,0.151976 0,0.303951 0,0.455927c0,0.303951 0.151978,0.455927 0.151978,0.607903c0,0.303951 -0.034912,0.459992 0,0.607903c0.078079,0.330738 0.117065,0.459992 0.151978,0.607903c0.078079,0.330738 0.245789,0.467496 0.303955,0.607903c0.082245,0.198566 0.105392,0.373678 0.303955,0.455927c0.140411,0.058159 0.151978,0.151976 0.30394,0.151976c0.151978,0 0.151978,0.151976 0.303955,0.151976c0.151978,0 0.303955,0 0.455933,0c0.151978,0 0.409332,-0.069727 0.607895,-0.151976c0.140411,-0.058159 0.409348,-0.069727 0.60791,-0.151976c0.280823,-0.116318 0.47905,0.116318 0.759872,0c0.198563,-0.082249 0.303955,-0.151976 0.455933,-0.151976l0.151978,-0.151976l0.151978,0l0.151978,0" id="svg_17" fill-opacity="null" stroke-opacity="null" stroke-width="1.5" stroke="#000" fill="none"/>
  <path d="m165.957397,3.799391c-0.151978,0 -0.225876,0.125189 -0.303955,0.455927c-0.034912,0.14791 -0.073898,0.42914 -0.151978,0.759878c-0.069839,0.29582 -0.151978,0.607905 -0.30394,1.063829c-0.151978,0.455929 -0.226974,0.893397 -0.303955,1.367781c-0.073029,0.450039 -0.230927,0.917741 -0.303955,1.367781c-0.076981,0.474384 -0.225876,1.037043 -0.303955,1.367781c-0.104752,0.44373 0,0.911854 0,1.519756c0,0.151976 0,0.607903 0,0.759878c0,0.303951 0,0.455927 0,0.607903c0,0.151976 0,0.455927 0,0.607903c0,0.151976 0,0.303951 0,0.455927c0,0.151976 0,0 0,-0.151976c0,-0.151976 0,-0.455927 0,-0.759878c0,-0.303951 0,-0.607903 0,-0.911854c0,-0.303951 0,-0.759878 0,-1.063829c0,-0.455927 0,-0.759878 0,-1.063829c0,-0.151976 0,-0.607903 0,-0.759878c0,-0.303951 0,-0.455927 0,-0.759878c0,-0.303951 -0.034912,-0.459992 0,-0.607903c0.078079,-0.330738 0.178284,-0.433546 0.303955,-0.607903c0.1987,-0.275682 0.245789,-0.467495 0.303955,-0.607903c0.082245,-0.198567 0.277267,-0.16686 0.455917,-0.455927c0.079895,-0.129279 0.22171,-0.409336 0.303955,-0.607903c0.058167,-0.140407 0.277267,-0.318825 0.455933,-0.607903c0.079895,-0.129278 0.22171,-0.25736 0.303955,-0.455927c0.058151,-0.140407 0.221695,-0.25736 0.30394,-0.455926c0.058167,-0.140407 0.04451,-0.348464 0.151978,-0.455927c0.107468,-0.107464 0.04451,-0.196488 0.151978,-0.303951c0.107468,-0.107464 0.196487,-0.25944 0.303955,-0.151976c0.107468,0.107463 0.093811,0.163544 0.151978,0.303952c0.082245,0.198566 0.330246,0.281569 0.455917,0.455927c0.1987,0.275682 0.257233,0.484196 0.455933,0.759878c0.125671,0.174357 0.378952,0.285494 0.455933,0.759878c0.024338,0.150013 0.151962,0.455927 0.30394,0.759878c0.151978,0.303951 0.225876,0.429141 0.303955,0.759878c0.069839,0.29582 0.105255,0.484196 0.303955,0.759878c0.125671,0.174358 0.22171,0.409336 0.303955,0.607902c0.116318,0.280815 0.026306,0.433552 0.151962,0.607903c0.1987,0.275687 0.151978,0.455927 0.151978,0.607903c0,0.151976 0.151978,0.303951 0.151978,0.455927c0,0.303951 -0.058167,0.467496 0,0.607903c0.082245,0.198566 0.151978,0.303951 0.151978,0.455927c0,0.151976 0,0.455927 0,0.607903c0,0.151976 0.069733,0.409336 0.151978,0.607903c0.058167,0.140407 0,0.303951 0,0.455927c0,0.151976 0,0.303951 0,0.455927c0,0.151976 0,0.303951 0.151978,0.455927c0.151978,0.151976 0.151978,0.303951 0.151978,0.455927l0.151978,0l0,0.151976l0,0.151976" id="svg_18" fill-opacity="null" stroke-opacity="null" stroke-width="1.5" stroke="#000" fill="none"/>
  <path d="m178.571381,3.039513c0,0.151976 0,0.455927 0,0.759878c0,0.455927 0,1.06383 0,1.367781c0,0.607903 0,1.063829 0,1.671732c0,0.455927 0.05571,1.067245 0,1.519757c-0.076569,0.621917 -0.103287,1.21973 -0.151978,1.519756c-0.076981,0.474384 -0.151978,0.911854 -0.151978,1.367781c0,0.303951 0.104752,0.620099 0,1.063829c-0.078079,0.330738 -0.151978,0.607903 -0.151978,1.063829c0,0.303951 0,0.607903 0,0.911854c0,0.303951 0,0.759878 0,1.215805c0,0.303951 0,0.607903 0,0.759879c0,0.303951 0,0.455927 0,0.607903c0,0.151976 -0.107468,0.259439 0,0.151976c0.107468,-0.107464 0.225876,-0.277164 0.303955,-0.607903c0.069839,-0.29582 0.151978,-0.759879 0.151978,-1.215806c0,-0.455927 0.151962,-0.911854 0.151962,-1.367781c0,-0.455927 0.075409,-0.89784 0.151978,-1.519756c0.07428,-0.603348 0,-1.063829 0,-1.671732c0,-0.607903 0,-1.063829 0,-1.671732c0,-0.455928 0,-0.911854 0,-1.215806c0,-0.455927 0.151978,-0.759878 0.151978,-1.215805c0,-0.151976 0.151978,-0.607903 0.151978,-0.759878c0,-0.151976 -0.058167,-0.467495 0,-0.607903c0.082245,-0.198567 0.093811,-0.31552 0.151978,-0.455927c0.082245,-0.198566 0.196487,-0.196488 0.303955,-0.303951c0.107468,-0.107464 0.196472,-0.044513 0.30394,-0.151976c0.107468,-0.107464 0.303955,0 0.455933,0c0.151978,0 0.308014,-0.034918 0.455933,0c0.330719,0.078076 0.441681,0.471642 0.607895,0.607903c0.423767,0.347399 0.701202,0.653044 1.063828,1.063829c0.224899,0.254763 0.477859,0.597894 0.60791,0.911854c0.183914,0.444006 0.455917,0.759878 0.607895,1.215806c0.151978,0.455926 0.487366,0.883379 0.759888,1.215805c0.347397,0.423755 0.48735,0.883382 0.759872,1.215805c0.347397,0.423757 0.564453,0.79205 0.91185,1.215805c0.136261,0.166213 0.482239,0.585521 0.60791,0.759878c0.1987,0.275682 0.225876,0.42914 0.303955,0.759878c0.034912,0.14791 0.221695,0.409336 0.30394,0.607903c0.116318,0.280814 0.03566,0.479064 0.151978,0.759878c0.082245,0.198566 0.105255,0.484196 0.303955,0.759878c0.125671,0.174357 0.04451,0.50044 0.151978,0.607903c0.107468,0.107465 0.151978,0.151977 0.151978,0.303952l0,0.151976l0,0.151976l0,0.151976" id="svg_19" fill-opacity="null" stroke-opacity="null" stroke-width="1.5" stroke="#000" fill="none"/>
  <path d="m174.62001,10.182368c0.151978,0 0.303955,0 0.455917,0c0.151978,0 0.409348,-0.069727 0.60791,-0.151976c0.140411,-0.058159 0.455933,0 0.607895,0c0.303955,0 0.60791,-0.151976 0.911865,-0.151976c0.30394,0 0.589432,-0.074994 1.063828,-0.151976c0.450027,-0.073029 0.741409,-0.074994 1.215805,-0.151976c0.450027,-0.073029 1.063828,-0.151976 1.367783,-0.151976c0.455917,0 0.91185,-0.151976 1.215805,-0.151976c0.455917,0 0.91185,-0.151976 1.215805,-0.151976c0.30394,0 0.589432,-0.074994 1.063828,-0.151976c0.150009,-0.024343 0.429138,-0.073899 0.759872,-0.151976c0.147919,-0.034917 0.455933,0 0.60791,0c0.151978,0 0.257355,-0.069727 0.455917,-0.151976c0.140411,-0.058159 0.348465,0.107465 0.455933,0c0.107468,-0.107464 0.151978,-0.151977 0.303955,-0.151977c0.151978,0 0.30394,0 0.455917,0c0.151978,0 0.303955,0 0.455933,0l0.151978,0l0,-0.151975" id="svg_20" fill-opacity="null" stroke-opacity="null" stroke-width="1.5" stroke="#000" fill="none"/>
  <path d="m193.161041,5.015196c0,0.151976 0.034912,0.308017 0,0.455927c-0.078079,0.330738 -0.225876,0.429141 -0.303955,0.759878c-0.069839,0.29582 0,0.607903 0,1.063829c0,0.455927 0,0.759879 0,1.367781c0,0.455927 0,0.911854 0,1.519756c0,0.303951 0.151978,0.759878 0.151978,1.367781c0,0.303951 0,0.759878 0,1.063829c0,0.151976 0,0.455927 0,0.759878l0,0.151976l0,-0.151976" id="svg_21" fill-opacity="null" stroke-opacity="null" stroke-width="1.5" stroke="#000" fill="none"/>
  <path d="m187.689911,4.407294c0.151978,0 0.303955,0 0.455933,0c0.151978,0 0.457886,-0.024344 0.607895,0c0.474396,0.076982 0.60791,0.151976 0.911865,0.151976c0.455917,0 0.91185,0 1.215805,0c0.455917,0 0.759872,0 1.063828,0c0.455917,0 0.759872,0 1.215805,0c0.455917,0 0.759872,0 1.215805,0c0.30394,0 0.620087,0.104751 1.063828,0c0.330734,-0.078076 0.607895,-0.151976 0.759872,-0.151976l0.151978,0l0.151978,-0.151976" id="svg_22" fill-opacity="null" stroke-opacity="null" stroke-width="1.5" stroke="#000" fill="none"/>
  <path d="m199.544006,4.103343c0,0.151976 -0.069717,0.257368 -0.151962,0.455927c-0.116318,0.280817 -0.073898,0.581116 -0.151978,0.911854c-0.104752,0.44373 -0.225876,0.885067 -0.303955,1.215805c-0.139664,0.59164 -0.151978,1.063829 -0.151978,1.671732c0,0.455927 -0.096268,0.91527 -0.151978,1.367781c-0.076569,0.621917 -0.225876,1.037043 -0.303955,1.367781c-0.069839,0.29582 0.116318,0.631037 0,0.911854c-0.082245,0.198559 -0.151962,0.303951 -0.151962,0.151976c0,-0.151976 0,-0.303951 0,-0.607903c0,-0.303951 0,-0.607903 0,-0.911854c0,-0.151976 0,-0.607903 0,-0.911854c0,-0.303951 0.073898,-0.429146 0.151962,-0.759878c0.069824,-0.295821 0.151978,-0.607903 0.151978,-0.759878c0,-0.303952 -0.116318,-0.479064 0,-0.759879c0.082245,-0.198567 0.151978,-0.303951 0.151978,-0.607903c0,-0.151976 0.151978,-0.151976 0.151978,-0.303951c0,-0.151976 0.151978,-0.151976 0.303955,-0.151976c0.151978,0 0.303955,0 0.455917,0c0.151978,0 0.303955,0 0.455933,0c0.151978,0 0.303955,0 0.455933,0c0.151978,0 0.30394,0 0.455917,0l0.151978,0l0.151978,0" id="svg_23" fill-opacity="null" stroke-opacity="null" stroke-width="1.5" stroke="#000" fill="none"/>
  <path d="m201.215744,6.382977c0.151978,0 0.303955,0 0.455933,0l0.151978,0" id="svg_24" fill-opacity="null" stroke-opacity="null" stroke-width="1.5" stroke="#000" fill="none"/>
  <path d="m202.127594,12.006076c0,-0.151976 0,-0.455927 0,-0.759878c0,-0.303951 0,-0.607903 0,-0.911854c0,-0.303951 0,-0.759878 0,-1.063829c0,-0.303951 -0.034912,-0.763945 0,-0.911854c0.078079,-0.330738 0.22171,-0.561312 0.303955,-0.759879c0.116318,-0.280814 -0.058167,-0.467495 0,-0.607903c0.082245,-0.198567 0.151978,-0.303951 0.151978,-0.455927c0,-0.151976 0.069733,-0.409336 0.151978,-0.607903c0.058167,-0.140407 0,-0.303951 0,-0.455927c0,-0.151976 0.22171,-0.25736 0.303955,-0.455927c0.058167,-0.140407 -0.107468,-0.348464 0,-0.455927c0.107452,-0.107453 0.151962,-0.151976 0.151962,-0.303951l0,-0.151976l0,-0.151976" id="svg_25" fill-opacity="null" stroke-opacity="null" stroke-width="1.5" stroke="#000" fill="none"/>
  <path d="m207.598724,4.863221c-0.151978,0 -0.257233,0.180244 -0.455933,0.455927c-0.125671,0.174357 -0.151978,0.303948 -0.303955,0.607903c-0.151962,0.303948 -0.30394,0.455927 -0.455917,0.759878c-0.151978,0.303951 -0.151978,0.455927 -0.303955,0.759878c-0.151978,0.303951 -0.151978,0.607903 -0.151978,0.759879c0,0.30395 0,0.455927 0,0.759878c0,0.151976 0,0.455927 0,0.607903c0,0.151976 -0.116318,0.327088 0,0.607903c0.082245,0.198566 0.303955,0.455927 0.455933,0.607903c0.151978,0.151976 0.455917,0.455927 0.607895,0.607903c0.151978,0.151976 0.455933,0.151973 0.759888,0.303951c0.30394,0.151973 0.616028,0.082142 0.91185,0.151976c0.330734,0.078076 0.759872,0.151976 1.063828,0.151976c0.303955,0 0.759872,0 1.063828,0c0.303955,0 0.525665,-0.105385 0.60791,-0.303951c0.058167,-0.140407 0.196487,-0.196498 0.30394,-0.303951c0.21492,-0.214926 0,-0.455927 0,-0.607903c0,-0.303951 -0.221695,-0.561312 -0.30394,-0.759878c-0.116318,-0.280814 -0.257233,-0.636171 -0.455933,-0.911854c-0.251343,-0.348715 -0.634201,-0.585522 -0.759872,-0.759878c-0.1987,-0.275681 -0.433548,-0.482234 -0.60791,-0.607903c-0.275681,-0.198701 -0.56131,-0.373678 -0.759872,-0.455927c-0.140411,-0.058159 -0.196487,-0.044513 -0.303955,-0.151976c-0.107468,-0.107464 -0.151978,-0.151976 0,-0.151976c0.151978,0 0.312088,-0.082139 0.60791,-0.151976c0.330719,-0.078076 0.763794,-0.103286 1.063828,-0.151976c0.47438,-0.076982 0.759872,-0.151976 1.063828,-0.151976c0.455917,0 0.768005,-0.082142 1.063828,-0.151976c0.330734,-0.078076 0.409332,-0.221702 0.607895,-0.303951c0.140411,-0.058162 0.196487,-0.044511 0.303955,-0.151976c0.107468,-0.107463 -0.046585,-0.373678 0.151978,-0.455927c0.140411,-0.058159 0.151978,-0.151976 0.151978,-0.303951c0,-0.151976 0.151978,-0.455927 0,-0.455927c-0.151978,0 0.034912,0.459993 0,0.607903c-0.078079,0.330738 -0.047226,0.620099 -0.151978,1.063829c-0.078079,0.330738 -0.226974,0.589446 -0.303955,1.063829c-0.048691,0.300026 -0.073898,0.581116 -0.151978,0.911854c-0.069839,0.29582 0,0.607903 0,0.759878c0,0.303951 0,0.455927 0,0.759878c0,0.303951 0.03566,0.479064 0.151978,0.759878c0.082245,0.198566 0.151978,0.303951 0.151978,0.607903l0,0.151976" id="svg_26" fill-opacity="null" stroke-opacity="null" stroke-width="1.5" stroke="#000" fill="none"/>
  <path d="m218.085037,4.711245c0,0.151976 0.058167,0.31552 0,0.455927c-0.082245,0.198567 -0.151978,0.607903 -0.151978,0.911854c0,0.455927 0,0.911854 0,1.367781c0,0.303951 0,0.759879 0,1.215806c0,0.303951 0.082138,0.616034 0.151978,0.911854c0.078079,0.330738 0.277267,0.318825 0.455933,0.607903c0.079895,0.129278 0.151978,0.151976 0.303955,0.303951c0.151978,0.151976 0.30394,0.151976 0.455917,0.151976c0.151978,0 0.277176,-0.073899 0.60791,-0.151976c0.147919,-0.034917 0.303955,-0.151979 0.607895,-0.455927c0.151978,-0.151978 0.303955,-0.455927 0.455933,-0.759878c0.151978,-0.303951 0.234116,-0.464058 0.303955,-0.759879c0.078079,-0.330737 0.03566,-0.47906 0.151978,-0.759878c0.082245,-0.198559 0.30394,-0.303951 0.30394,-0.455927c0,-0.151976 0.069733,-0.046591 0.151978,0.151976c0.116318,0.280814 0.063904,0.772921 0.151978,1.063829c0.158798,0.524446 0.437347,0.769908 0.60791,1.06383c0.275024,0.473928 0.455917,0.607903 0.607895,0.759878c0.303955,0.303951 0.455933,0.455927 0.60791,0.455927c0.151962,0 0.455917,0.151976 0.607895,0.151976c0.151978,0 0.303955,0 0.455933,0c0.151978,0 0.151978,-0.151976 0.30394,-0.455927l0,-0.151976l0.151978,-0.151976l0,-0.151976" id="svg_27" fill-opacity="null" stroke-opacity="null" stroke-width="1.5" stroke="#000" fill="none"/>
  <path d="m219.148865,2.887537c0,0.151976 0.196487,0.044511 0.303955,0.151976c0.107468,0.107463 0.163544,0.093817 0.303955,0.151976c0.198563,0.082248 0.315521,0.093813 0.455933,0.151976c0.198563,0.082249 0.30394,0.151976 0.455917,0.151976c0.151978,0 0.25737,0.069727 0.455933,0.151976c0.140411,0.058159 0.303955,0 0.455917,0l0.151978,0" id="svg_28" fill-opacity="null" stroke-opacity="null" stroke-width="1.5" stroke="#000" fill="none"/>
  <path d="m238.449783,3.799391c0.151962,0 0.455917,0 0.607895,0c0.303955,0 0.581116,0.225875 0.91185,0.303952c0.295822,0.069837 0.631042,0.035651 0.911865,0.151976c0.198563,0.082249 0.455917,0.151976 0.607895,0.303951c0.151978,0.151975 0.22171,0.25736 0.303955,0.455927c0.116318,0.280814 -0.026306,0.433545 -0.151978,0.607903c-0.1987,0.275682 -0.367615,0.367602 -0.60791,0.607903c-0.24028,0.240294 -0.411148,0.50854 -0.759872,0.759878c-0.275681,0.198701 -0.52565,0.257368 -0.607895,0.455927c-0.058151,0.140409 -0.058151,0.315518 0,0.455927c0.082245,0.198559 0.30394,0.303951 0.607895,0.607902c0.151978,0.151977 0.257233,0.332221 0.455933,0.607903c0.125671,0.174357 0.30394,0.303951 0.30394,0.607903c0,0.303951 0,0.455927 0,0.759878c0,0.151976 0.058151,0.467495 0,0.607903c-0.16449,0.397125 -0.455917,0.607903 -0.759872,0.759878c-0.303955,0.151976 -0.539383,0.297138 -1.063828,0.455927c-0.436371,0.132121 -0.91185,0 -1.367783,0c-0.455933,0 -0.91185,0 -1.367783,0c-0.303955,0 -0.607895,0 -1.063828,0c-0.303955,0 -0.607895,0 -0.759872,0l-0.151978,0l-0.151978,-0.151976" id="svg_30" fill-opacity="null" stroke-opacity="null" stroke-width="1.5" stroke="#000" fill="none"/>
  <path d="m245.136703,10.182368c-0.151978,0 -0.22171,0.105385 -0.303955,0.303951c-0.116318,0.280814 0,0.455927 0,0.607903c0,0.303951 0,0.455927 0,0.607903c0,0.151976 -0.026779,0.377851 0.303955,0.455927c0.295822,0.069834 0.610184,0.11484 0.91185,0.151976c0.621918,0.076561 0.911865,0.151976 1.51976,0.151976c0.455933,0 0.91185,0 1.215805,0c0.303955,0 0.525665,-0.105385 0.60791,-0.303951c0.058167,-0.140407 0,-0.303951 -0.151978,-0.455927c-0.303955,-0.303951 -0.563141,-0.508542 -0.91185,-0.759878c-0.275681,-0.198705 -0.771805,-0.423985 -1.21582,-0.607903c-0.31395,-0.130044 -0.768005,-0.38609 -1.063828,-0.455927c-0.330719,-0.078076 -0.467484,-0.245792 -0.607895,-0.303951c-0.198563,-0.082249 -0.292389,-0.210135 -0.151978,-0.151976c0.198563,0.082249 0.459991,0.269038 0.607895,0.303951c0.330734,0.078076 0.429153,0.225875 0.759888,0.303951c0.443726,0.104747 0.759872,0.151976 0.91185,0.151976c0.303955,0 0.69693,0.214918 0.91185,0c0.107468,-0.107463 0.04451,-0.196486 0.151978,-0.303951c0.107468,-0.107463 0,-0.455927 0,-0.607903c0,-0.151976 0.069839,-0.312082 0,-0.607903c-0.078079,-0.330738 -0.377838,-0.581116 -0.455917,-0.911854c-0.104752,-0.44373 -0.22995,-0.698174 -0.455933,-1.063829c-0.25267,-0.408813 -0.303955,-0.607903 -0.303955,-1.063829c0,-0.151976 0,-0.303951 0,-0.607903c0,-0.151976 0.011566,-0.245793 0.151978,-0.303952c0.198563,-0.082248 0.303955,-0.151975 0.455933,-0.151975c0.303955,0 0.607895,0 1.063828,0c0.303955,0 0.91185,0 1.367783,0c0.607895,0 1.215805,0 1.8237,0c0.455933,0 1.063828,0 1.51976,0c0.303955,0 0.60791,0 0.759872,0l0.151978,0l0,0.151975" id="svg_31" fill-opacity="null" stroke-opacity="null" stroke-width="1.5" stroke="#000" fill="none"/>
  <path d="m257.142792,10.182368c0,0.151976 -0.151978,0.303951 -0.151978,0.607903c0,0.151976 0,0.303951 0,0.607903c0,0.151976 0.044525,0.196486 0.151978,0.303951c0.107452,0.107463 0.151978,0.151976 0.303955,0.151976c0.151947,0 0.34845,0.107465 0.455902,0c0.107452,-0.107463 0.178284,-0.129594 0.303955,-0.303951c0.1987,-0.275682 0.196503,-0.348464 0.303955,-0.455927c0.214935,-0.214929 0.525665,-0.105385 0.60791,-0.303951c0.058167,-0.140407 0.196503,-0.25944 0.303955,-0.151976c0.107452,0.107463 0.093811,0.163545 0.151978,0.303951c0.082245,0.198566 0.105377,0.525654 0.303955,0.607903c0.140381,0.058147 0.151947,0.151976 0.151947,0.303951c0,0.151976 0.105377,0.221703 0.303955,0.303951c0.140411,0.058159 0.303955,0.151976 0.455933,0.303951l0.151978,0.151976l0.151978,0l0.151978,0.151976" id="svg_32" fill-opacity="null" stroke-opacity="null" stroke-width="1.5" stroke="#000" fill="none"/>
  <path d="m265.653412,6.382977c0,0.151976 0,0.303951 0,0.607903c0,0.303951 0,0.455927 0,0.759878c0,0.151976 0,0.607903 0,0.759878c0,0.303952 -0.073914,0.581117 -0.151978,0.911855c-0.069824,0.29582 0,0.607903 0,0.911854c0,0.151976 0,0.455927 0,0.759878c0,0.303951 0,0.455927 0,0.607903l0,0.303951l0,-0.151976" id="svg_33" fill-opacity="null" stroke-opacity="null" stroke-width="1.5" stroke="#000" fill="none"/>
  <path d="m263.525757,6.99088c0.151978,0 0.303955,0 0.455933,0c0.151978,0 0.455933,0 0.60791,0c0.455902,0 0.615997,0.069834 0.911835,0c0.33075,-0.078076 0.455933,-0.151976 0.911865,-0.151976c0.303955,0 0.60791,0 1.063812,0c0.151978,0 0.455933,0 0.759888,0l0.151978,0" id="svg_34" fill-opacity="null" stroke-opacity="null" stroke-width="1.5" stroke="#000" fill="none"/>
  <path d="m269.300842,10.48632c0.151978,0 0.303955,0 0.455902,0c0.303955,0 0.433563,-0.178282 0.60791,-0.303951c0.275696,-0.198701 0.433563,-0.178282 0.60791,-0.303951c0.275696,-0.198701 0.636169,-0.409202 0.911865,-0.607903c0.174347,-0.125669 0.455902,-0.151976 0.60788,-0.303951c0.151978,-0.151976 0.196503,-0.196488 0.303955,-0.303951c0.107452,-0.107465 0.198578,-0.221704 0,-0.303951c-0.280823,-0.116317 -0.455933,0 -0.60791,0c-0.151947,0 -0.303925,-0.000001 -0.455902,0.151975c-0.151978,0.151976 -0.367615,0.215632 -0.60791,0.455928c-0.240295,0.240294 -0.303955,0.607903 -0.303955,0.759878c0,0.303951 -0.151978,0.607903 -0.151978,0.759878c0,0.151976 0,0.303951 0,0.455927c0,0.151976 -0.058167,0.31552 0,0.455927c0.082245,0.198566 0.257355,0.221703 0.455933,0.303951c0.280823,0.116318 0.455933,0.151976 0.759888,0.151976c0.151978,0 0.303925,0 0.455902,0c0.303955,0 0.455933,0 0.60791,0c0.151978,0 0.303955,0 0.455933,0l0,-0.151976" id="svg_35" fill-opacity="null" stroke-opacity="null" stroke-width="1.5" stroke="#000" fill="none"/>
  <path d="m256.534882,8.054709c0,0.151976 0,0.303951 0,0.455926c0,0.151977 -0.069733,0.409337 -0.151978,0.607903c-0.058167,0.140407 0,0.455927 0,0.607903c0,0.151976 0,0.455927 0,0.607903c0,0.151976 0,0.455927 0,0.607903c0,0.151976 0,0.455927 0,0.607903l0,0.151976l0,0.151976l0,0.151976" id="svg_37" fill-opacity="null" stroke-opacity="null" stroke-width="1.5" stroke="#000" fill="none"/>
  <path d="m259.118469,8.510635c0,0.151977 0,0.455928 0,0.607903c0,0.151976 0,0.303951 0,0.455927c0,0.151976 0,0.303951 -0.151978,0.455927l0,0.151976l0,0.151976" id="svg_38" fill-opacity="null" stroke-opacity="null" stroke-width="1.5" stroke="#000" fill="none"/>
  <path d="m276.74765,6.534953c0.151978,0.151976 0.151978,0.455927 0.151978,0.607903c0,0.455927 0.103302,0.763802 0.151978,1.06383c0.076965,0.474377 0.151947,0.759878 0.151947,1.215805c0,0.303951 0.151978,0.759878 0.151978,1.063829c0,0.303951 -0.069824,0.616034 0,0.911854c0.078064,0.330738 0.151978,0.455927 0.151978,0.607903l0,0.151976l0,0.303951" id="svg_39" fill-opacity="null" stroke-opacity="null" stroke-width="1.5" stroke="#000" fill="none"/>
  <path d="m282.522705,8.966563c-0.151978,0 -0.303955,0 -0.455933,0c-0.151947,0 -0.455902,0 -0.60788,0c-0.151978,0 -0.303955,0 -0.60791,0c-0.151978,0 -0.455933,0 -0.60791,0c-0.151978,0 -0.303955,0 -0.455933,0c-0.151978,0 -0.303925,0 -0.455902,0c-0.151978,0 -0.34848,-0.107465 -0.455933,0c-0.107452,0.107463 -0.151978,0.151976 -0.303955,0.151976l-0.151978,0l-0.151978,0l-0.151978,0" id="svg_40" fill-opacity="null" stroke-opacity="null" stroke-width="1.5" stroke="#000" fill="none"/>
  <path d="m280.850983,6.534953c0,0.151976 0.069733,0.25736 0.151978,0.455927c0.058167,0.140407 0,0.455927 0,0.607903c0,0.151976 0,0.455927 0,0.607903c0,0.151976 0.151978,0.30395 0.151978,0.455927c0,0.151976 -0.058167,0.31552 0,0.455927c0.082245,0.198566 0.105377,0.373678 0.303955,0.455927c0.140411,0.058159 0.044525,0.196488 0.151978,0.303951c0.107452,0.107465 0.151978,0.151976 0.151978,0.303951l0.151978,0l0,0.151976l0,0.151976" id="svg_42" fill-opacity="null" stroke-opacity="null" stroke-width="1.5" stroke="#000" fill="none"/>
  <path d="m285.562225,7.142855c0,0.151976 -0.035645,0.175113 -0.151978,0.455927c-0.082245,0.198567 -0.151978,0.303951 -0.151978,0.607903c0,0.151976 -0.151978,0.455927 -0.151978,0.759878c0,0.303951 0,0.455927 0,0.607903c0,0.303951 -0.116333,0.479064 0,0.759878c0.082245,0.198566 0.303955,0.303951 0.455933,0.455927c0.151978,0.151976 0.409332,0.373678 0.60791,0.455927c0.280823,0.116318 0.429138,0.073899 0.759857,0.151976c0.147919,0.03492 0.455933,0 0.60791,0c0.303955,0 0.455933,0 0.60791,0c0.303955,0 0.525665,0.046591 0.60791,-0.151976c0.058167,-0.140407 0,-0.303951 0,-0.455927c0,-0.151976 0,-0.455927 0,-0.607903c0,-0.151976 0.058167,-0.31552 0,-0.455927c-0.082245,-0.198566 -0.467499,-0.245792 -0.60791,-0.303951c-0.198578,-0.082249 -0.17511,-0.187634 -0.455933,-0.303951c-0.198578,-0.082249 -0.303955,-0.151976 -0.455933,-0.151976l-0.151978,0l-0.151978,0" id="svg_43" fill-opacity="null" stroke-opacity="null" stroke-width="1.5" stroke="#000" fill="none"/>
  <path d="m296.586365,5.823287c0.200806,0.200803 0.047119,0.432178 0.200806,0.803213c0.108673,0.262363 0.200806,0.401606 0.200806,0.803213c0,0.401607 0,0.602409 0,1.004016c0,0.401607 0,0.803213 0,1.20482c0,0.401607 0,0.803213 0,1.20482c0,0.401606 0,0.803212 0,1.004016c0,0.401607 0,0.602409 0,0.803213c0,0.200803 0,0.401606 -0.200806,0.602409l0,0.200803l0,-0.200803l0,-0.200804" id="svg_44" fill-opacity="null" stroke-opacity="null" stroke-width="1.5" stroke="#000" fill="none"/>
  <path d="m293.172699,5.220877c0.200806,0 0.401611,0 0.602417,0c0.200806,0 0.632996,-0.153677 1.003998,0c0.26236,0.108674 0.803223,0.200803 1.004028,0.200803c0.602417,0 1.009216,0.136478 1.405609,0.200803c0.626801,0.101715 0.803223,0.200803 1.204834,0.200803c0.401611,0 0.602417,0 0.803223,0c0.200806,0 0.401581,0 0.602386,0c0.200806,0 0.401611,0 0.602417,0c0.200806,0 0.401611,0 0.602417,0l0.200806,0" id="svg_45" fill-opacity="null" stroke-opacity="null" stroke-width="1.5" stroke="#000" fill="none"/>
  <path d="m304.819275,5.622483c0,0.200803 0,0.401607 0,0.60241c0,0.401607 0,0.60241 0,0.803213c0,0.401607 0.076843,0.617695 0,0.803213c-0.108673,0.262363 -0.123962,0.617692 -0.200806,0.803213c-0.108643,0.262347 -0.493713,0.540849 -0.602386,0.803212c-0.153687,0.371036 -0.154663,0.808585 -0.200806,1.004017c-0.103149,0.436999 -0.200806,0.803212 -0.200806,1.204819c0,0.200804 0,0.401607 0,0.60241c0,0.200803 0,0.401607 0.200806,0.401607c0.200806,0 0.401611,0 0.602417,0c0.401581,0 0.602386,-0.200804 1.003998,-0.401607c0.401611,-0.200804 0.602417,-0.401607 1.004028,-0.803213c0.200806,-0.200804 0.339874,-0.438949 0.602417,-0.803213c0.166016,-0.230365 0.235535,-0.572837 0.401581,-0.803213c0.262543,-0.364255 0.200806,-0.803212 0.200806,-1.004016c0,-0.200803 0,-0.401607 0,-0.602409c0,-0.200804 0,-0.60241 -0.200806,-0.803213c-0.200806,-0.200803 -0.206177,-0.355478 -0.401581,-0.401607c-0.437012,-0.103161 -0.540863,-0.493735 -0.803223,-0.602409c-0.371033,-0.153689 -0.540863,-0.092129 -0.803223,-0.200803c-0.371033,-0.153689 -0.602417,0 -0.803223,0l-0.200775,0l-0.200806,0" id="svg_46" fill-opacity="null" stroke-opacity="null" stroke-width="1.5" stroke="#000" fill="none"/>
  <path d="m311.847412,6.02409c0,0.200803 -0.097656,0.366214 -0.200806,0.803213c-0.046143,0.195431 -0.136475,0.607595 -0.200806,1.004016c-0.101715,0.626797 -0.200806,1.004016 -0.401611,1.606425c-0.200806,0.60241 -0.500702,0.97963 -0.602417,1.606426c-0.032166,0.19821 -0.139069,0.639761 -0.401611,1.004016c-0.166046,0.230376 -0.259613,0.543597 -0.401611,0.401607c-0.141998,-0.141989 0,-0.401607 0,-0.602409c0,-0.401607 0.200806,-0.803213 0.401611,-1.405622c0.200806,-0.60241 0.485138,-0.755236 0.803223,-1.405622c0.278992,-0.570426 0.47113,-0.944871 0.803223,-1.405623c0.262543,-0.364255 0.602386,-0.803213 0.803192,-1.004016c0.401611,-0.401607 0.602417,-0.60241 0.803223,-0.803213c0.200806,-0.200803 0.460419,-0.058812 0.602417,-0.200803c0.141998,-0.141989 0.292938,-0.262363 0.401611,0c0.153687,0.371036 0.16864,0.605002 0.200806,0.803213c0.101715,0.626789 0.401581,0.803213 0.602386,1.204819c0.200806,0.401606 0.436371,0.77364 0.602417,1.004016c0.262543,0.364255 0.247925,0.833783 0.401611,1.204819c0.108673,0.262363 0.692871,0.251502 1.204803,2.811246c0.078766,0.393807 0.092133,0.741652 0.200806,1.004016c0.076843,0.185517 0,0.401606 0,0.200803l0,-0.200803l0,-0.200804" id="svg_47" fill-opacity="null" stroke-opacity="null" stroke-width="1.5" stroke="#000" fill="none"/>
  <path d="m322.48996,6.827303c-0.200806,0 -0.339844,0.238154 -0.602386,0.602409c-0.166046,0.230376 -0.430573,0.589185 -0.602417,1.004016c-0.243011,0.586659 -0.200806,1.004016 -0.200806,1.405622c0,0.60241 -0.061737,1.041368 0.200806,1.405622c0.166046,0.230376 0.284912,0.686515 0.602417,1.004017c0.317474,0.317485 0.602386,0.200803 0.803192,0.401607c0.401611,0.401607 0.567017,0.499248 1.004028,0.602409c0.195435,0.046135 0.401611,0 0.803223,0c0.200775,0 0.460388,0.141991 0.602386,0c0.283966,-0.283978 0,-0.602409 0,-0.803213c0,-0.200803 -0.092133,-0.340046 -0.200806,-0.602409c-0.153687,-0.371036 -0.493713,-0.54085 -0.602386,-0.803213c-0.076843,-0.185517 -0.200806,-0.401607 -0.401611,-0.602409c-0.200806,-0.200804 -0.200806,-0.401607 -0.401611,-0.401607l-0.200806,0l0,-0.200804l-0.200806,0" id="svg_48" fill-opacity="null" stroke-opacity="null" stroke-width="1.5" stroke="#000" fill="none"/>
  <path d="m328.714874,5.823287c0,0.200803 0,0.401607 0,0.803213c0,0.401606 0.099091,0.979629 0.200806,1.606426c0.096497,0.59463 0.200806,1.204819 0.200806,2.008032c0,0.401607 0.200806,1.004016 0.200806,1.405622c0,0.401607 0,0.60241 0,0.803213c0,0.200804 0,0.401607 0,0.200804c0,-0.200804 0.097656,-0.366214 0.200806,-0.803213c0.092285,-0.390863 0.200775,-0.60241 0.401581,-1.20482c0.200806,-0.602409 0.602417,-1.004016 1.004028,-1.405622c0.401611,-0.401607 0.9664,-0.844747 1.405609,-1.20482c0.559906,-0.459023 0.956055,-0.886726 1.606445,-1.204819c0.570435,-0.278986 0.822845,-0.567155 1.204803,-0.803213c0.512451,-0.316708 0.803223,-0.200803 1.004028,-0.200803l0.200806,-0.200803" id="svg_49" fill-opacity="null" stroke-opacity="null" stroke-width="1.5" stroke="#000" fill="none"/>
  <path d="m331.927734,8.433728c0.200806,0 0.324738,0.015285 0.401581,0.200804c0.108673,0.262363 0.401611,0.401607 0.602417,0.602409c0.200806,0.200803 0.230804,0.296037 0.401611,0.401607c0.381958,0.236058 0.416901,0.525565 0.602417,0.602409c0.26236,0.108674 0.292938,0.340047 0.401611,0.60241c0.076843,0.185517 0.058807,0.259617 0.200806,0.401606c0.141968,0.14197 0.259583,0.058813 0.401581,0.200804c0.141998,0.141989 0.058807,0.259616 0.200806,0.401607c0.141998,0.141989 0.058807,0.259616 0.200806,0.401607c0.141998,0.141989 0,0.401607 0.200806,0.602409l0.200806,0l0,0.200803" id="svg_50" fill-opacity="null" stroke-opacity="null" stroke-width="1.5" stroke="#000" fill="none"/>
  <path d="m340.763062,6.6265c-0.200806,0 -0.324768,0.015285 -0.401611,0.200803c-0.108673,0.262363 -0.200806,0.401606 -0.200806,0.602409c0,0.401607 0,0.602409 0,0.803213c0,0.401607 -0.200806,0.602409 -0.200806,0.803213c0,0.200803 0,0.401606 0,0.602409c0,0.200803 -0.076843,0.416892 0,0.602409c0.108673,0.262363 0.54068,0.438958 0.803223,0.803213c0.166046,0.230375 0.567017,0.298445 1.004028,0.401607c0.390869,0.092271 0.540833,0.292933 0.803192,0.401607c0.185516,0.076844 0.401611,0 0.602417,0c0.200806,0 0.406982,0.046135 0.602417,0c0.437012,-0.103162 0.602417,-0.200796 0.803223,-0.401607c0.200775,-0.200796 0.401581,-0.602409 0.401581,-0.803213c0,-0.200803 0,-0.602409 0,-0.803213c0,-0.200803 0.046143,-0.406979 0,-0.602409c-0.103149,-0.436999 -0.339844,-0.639761 -0.602386,-1.004016c-0.166046,-0.230376 -0.324768,-0.416892 -0.401611,-0.60241c-0.108673,-0.262363 -0.259613,-0.460421 -0.401611,-0.60241c-0.141998,-0.141991 -0.216095,-0.123959 -0.401611,-0.200803c-0.26236,-0.108674 -0.401611,-0.200803 -0.602417,-0.200803c-0.200806,0 -0.602386,0 -0.803192,0c-0.200806,0 -0.401611,0 -0.602417,0l-0.200806,0l-0.200806,0" id="svg_51" fill-opacity="null" stroke-opacity="null" stroke-width="1.5" stroke="#000" fill="none"/>
  <path d="m355.622498,11.244973c0.200806,0 0.540863,-0.09213 0.803223,-0.200803c0.185516,-0.076844 0.602417,-0.200795 0.803223,-0.401607c0.200775,-0.200795 0.401581,-0.200803 0.602386,-0.401607c0.200806,-0.200803 0.438965,-0.339869 0.803223,-0.602409c0.230377,-0.166045 0.485718,-0.485713 0.803223,-0.803213c0.317505,-0.317497 0.355438,-0.607781 0.401581,-0.803213c0.103149,-0.436999 0.247925,-0.63298 0.401611,-1.004016c0.108673,-0.262363 0.200806,-0.602409 0.200806,-0.803213c0,-0.200803 0,-0.60241 0,-0.803213c0,-0.200803 -0.340057,-0.694539 -0.602417,-0.803213c-0.185486,-0.076833 -0.602386,-0.200803 -0.803192,-0.200803c-0.200806,0 -0.401611,0 -0.602417,0.200803c-0.200806,0.200803 -0.401611,0.401607 -0.602417,0.803213c-0.200806,0.401607 -0.339874,0.840568 -0.602386,1.20482c-0.332092,0.460762 -0.700073,0.968623 -0.803223,1.405622c-0.092285,0.390862 -0.097656,0.76782 -0.200806,1.20482c-0.092285,0.390863 -0.200806,0.803213 -0.200806,1.004016c0,0.200804 0.200806,0.401607 0.401611,0.60241c0.200806,0.200803 0.340057,0.292933 0.602417,0.401606c0.185516,0.076844 0.340027,0.09213 0.602386,0.200804c0.185516,0.076844 0.340057,0.09213 0.602417,0.200803c0.371033,0.153688 0.803223,0.200804 1.204834,0.200804c0.401581,0 0.803192,0.200803 1.204803,0.200803c0.401611,0 0.767822,0.097642 1.204834,0.200804c0.390869,0.092271 0.661194,0.141991 0.803192,0c0.141998,-0.14199 -0.029999,-0.296032 -0.200806,-0.401607c-0.381927,-0.236062 -0.438934,-0.540672 -0.803192,-0.803213c-0.230377,-0.166044 -0.639771,-0.540671 -1.004028,-0.803213c-0.460754,-0.33209 -0.803223,-0.602416 -1.204803,-0.803213c-0.401611,-0.200809 -0.803223,-0.200803 -1.004028,-0.401606l-0.200806,-0.200804l-0.200806,0" id="svg_52" fill-opacity="null" stroke-opacity="null" stroke-width="1.5" stroke="#000" fill="none"/>
  <path d="m372.088379,5.42168c0,0.200803 -0.092255,0.412347 0,0.803213c0.103149,0.436989 0.701477,0.979629 0.803192,1.606426c0.064331,0.39642 0.200806,1.004016 0.200806,1.606425c0,0.401607 0,0.803213 0,1.20482c0,0.200804 0.058807,0.460421 0.200806,0.602409c0.141998,0.141991 0.200806,-0.200803 0.200806,-0.602409c0,-0.200803 -0.200806,-0.602409 -0.200806,-0.803213c0,-0.401607 -0.200806,-0.803212 -0.200806,-1.204819c0,-0.401607 0,-0.803213 0,-1.20482c0,-0.200803 0,-0.602409 0,-0.803213c0,-0.200803 0,-0.60241 0,-0.803213c0,-0.200803 0.200806,-0.200803 0.401611,-0.200803c0.200806,0 0.401611,0 0.803223,0c0.200806,0 0.401611,0 0.803192,0c0.200806,0 0.401611,0 0.803223,0c0.200806,0 0.259613,0.058814 0.401611,0.200803c0.141998,0.141991 0.200806,0.200803 0,0.200803c-0.200806,0 -0.602417,0 -0.803223,0c-0.401611,0 -0.803192,0 -1.204803,0c-0.401611,0 -0.803223,0 -1.004028,0l-0.200806,0" id="svg_53" fill-opacity="null" stroke-opacity="null" stroke-width="1.5" stroke="#000" fill="none"/>
  <path d="m372.088379,5.823287c-0.200806,0 -0.401611,0 -0.602417,0c-0.200806,0 -0.401611,0 -0.602417,0c-0.200806,0 -0.416901,-0.076844 -0.602417,0c-0.26236,0.108674 -0.259613,0.259617 -0.401611,0.401607c-0.141968,0.14197 -0.401581,0.200803 -0.602386,0.200803c-0.200806,0 -0.342804,0.259617 -0.200806,0.401607c0.141998,0.141991 0.259613,0.058814 0.401611,0.200803c0.141998,0.141991 0.41687,-0.076844 0.602386,0c0.26236,0.108674 0.401611,0.200803 0.602417,0.200803c0.200806,0 0.401611,0 0.602417,0l0.200806,0l0.200806,0l0.200806,0" id="svg_54" fill-opacity="null" stroke-opacity="null" stroke-width="1.5" stroke="#000" fill="none"/>
  <path d="m378.313263,5.020074c0,0.200803 0,0.401606 0,0.602409c0,0.401607 0,0.60241 0,0.803213c0,0.200803 0.123962,0.617695 0.200806,0.803213c0.217346,0.524727 0.340057,0.694539 0.602417,0.803213c0.185516,0.076844 0.165405,0.298446 0.602417,0.401607c0.195404,0.046128 0.41687,0.076844 0.602386,0c0.26236,-0.108673 0.401611,-0.200803 0.401611,-0.401607c0,-0.200803 -0.076843,-0.617695 0,-0.803213c0.108673,-0.262363 0.200806,-0.602409 0.200806,-0.401606c0,0.200803 0,0.401606 0,0.803213c0,0.401606 0,0.803213 0,1.405623c0,0.401606 0,1.004016 0,1.405622c0,0.401607 0,0.803212 -0.200806,1.204819c-0.200806,0.401607 -0.247925,0.632981 -0.401611,1.004017c-0.108673,0.262363 -0.416901,0.324773 -0.602386,0.401606c-0.26236,0.108674 -0.401611,0.401607 -0.602417,0.401607c-0.401611,0 -0.602417,0 -0.803223,0c-0.200806,0 -0.401611,-0.200803 -0.401611,-0.401607c0,-0.200803 -0.200806,-0.200803 -0.200806,-0.401606l0,-0.200804" id="svg_55" fill-opacity="null" stroke-opacity="null" stroke-width="1.5" stroke="#000" fill="none"/>
  <path d="m384.337372,6.827303c0,0.200803 0.298462,0.366213 0.401611,0.803213c0.092285,0.390863 0.298431,0.76782 0.401581,1.204819c0.092285,0.390863 0.047119,0.63298 0.200806,1.004016c0.108673,0.262363 0.200806,0.401607 0.200806,0.60241c0,0.200803 -0.123962,0.185517 -0.200806,0c-0.108673,-0.262363 -0.123962,-0.617696 -0.200806,-0.803213c-0.108673,-0.262363 -0.200806,-0.401607 -0.200806,-0.602409c0,-0.401607 0,-0.60241 0,-1.004017c0,-0.200803 0,-0.602409 0,-0.803213c0,-0.200803 -0.141998,-0.661223 0,-0.803213c0.141998,-0.141991 0.238159,-0.139065 0.602417,-0.401607c0.230377,-0.166045 0.416901,-0.123959 0.602417,-0.200803c0.26236,-0.108674 0.401611,-0.200803 0.602417,-0.200803c0.200806,0 0.460419,-0.14197 0.602386,0c0.141998,0.141989 0,0.401607 0,0.60241c0,0.200803 0,0.401607 0,0.60241c0,0.200803 0,0.401606 0,0.602409c0,0.200803 0.076843,0.416889 0,0.602409c-0.108643,0.262348 -0.259583,0.259618 -0.401581,0.401607c-0.141998,0.141991 -0.401611,0 -0.803223,0c-0.200806,0 -0.602417,0 -1.004028,0l-0.200806,0" id="svg_56" fill-opacity="null" stroke-opacity="null" stroke-width="1.5" stroke="#000" fill="none"/>
  <path d="m390.36145,5.823287c-0.200806,0 -0.200806,0.200803 -0.200806,0.401607c0,0.200803 -0.200806,0.60241 -0.200806,0.803213c0,0.200803 -0.292908,0.54085 -0.401581,0.803213c-0.153687,0.371036 0,0.803213 0,1.004016c0,0.401607 0.235565,0.572848 0.401581,0.803213c0.262543,0.364265 0.340057,0.493736 0.602417,0.602409c0.185516,0.076844 0.401611,0.200804 0.602417,0.200804c0.200806,0 0.406982,0.046135 0.602417,0c0.437012,-0.103162 0.700043,-0.165411 0.803192,-0.60241c0.046143,-0.195431 0.298462,-0.366214 0.401611,-0.803212c0.046143,-0.195432 0.200806,-0.60241 0.200806,-0.803213c0,-0.200804 0.200806,-0.401607 0.200806,-0.803213c0,-0.200803 0.200806,-0.200803 0.200806,0c0,0.200803 -0.092285,0.41235 0,0.803213c0.103149,0.436999 0.200806,0.602409 0.200806,1.004016c0,0.401607 0.200806,0.803213 0.200806,1.20482c0,0.200803 -0.076843,0.617695 0,0.803212c0.108673,0.262363 0.200806,0.401607 0.401611,0.401607l0.200806,0" id="svg_57" fill-opacity="null" stroke-opacity="null" stroke-width="1.5" stroke="#000" fill="none"/>
  <path d="m400.200806,9.036139c0,-0.200804 0.401611,-0.401607 0.602417,-0.60241c0.200806,-0.200803 0.637177,-0.372034 0.803223,-0.602409c0.262543,-0.364255 0.436371,-0.572832 0.602417,-0.803213c0.262512,-0.364252 0.123932,-0.617695 0.200775,-0.803213c0.108673,-0.262363 0.277649,-0.416892 0.200806,-0.60241c-0.108673,-0.262363 -0.401581,-0.200803 -0.602386,-0.200803c-0.200806,0 -0.401611,0 -0.602417,0c-0.200806,0 -0.607788,-0.046135 -0.803223,0c-0.437012,0.103161 -0.639771,0.540682 -1.003998,0.803213c-0.230377,0.166049 -0.401611,0.60241 -0.602417,0.803213c-0.401611,0.401606 -0.556274,0.808585 -0.602417,1.004016c-0.103149,0.436999 -0.298462,0.567018 -0.401611,1.004017c-0.092285,0.390862 -0.153687,0.63298 0,1.004016c0.108673,0.262363 0.463867,0.268572 1.004028,0.602409c0.483124,0.298593 0.767822,0.499248 1.204803,0.602409c0.586304,0.138414 1.40564,0 2.008057,0c0.401581,0 1.003998,0 1.606415,0c0.401611,0 0.803223,0 1.204803,0c0.200806,0 0.401611,-0.200803 0.401611,-0.401606l0.200806,0" id="svg_58" fill-opacity="null" stroke-opacity="null" stroke-width="1.5" stroke="#000" fill="none"/>
  <path d="m410.040161,6.6265c0,0.200803 0,0.401606 0,0.602409c0,0.200803 0,0.60241 0,0.803213c0,0.200804 0.046143,0.60778 0,0.803213c-0.103149,0.436989 -0.200775,0.602409 -0.200775,0.803213c0,0.401607 0.076843,0.617695 0,0.803213c-0.108673,0.262363 -0.401611,0.602409 -0.200806,0.602409c0.200806,0 0,-0.401607 0,-0.602409c0,-0.200804 0,-0.60241 0,-1.004017c0,-0.200803 -0.092133,-0.540849 -0.200806,-0.803212c-0.153687,-0.371036 0,-0.60241 0,-0.803213c0,-0.200803 0,-0.401607 0,-0.60241c0,-0.200803 0.292938,-0.540849 0.401611,-0.803213c0.076843,-0.185518 0.058777,-0.259617 0.200775,-0.401607c0.141998,-0.141991 0.401611,-0.200803 0.602417,-0.200803c0.200806,0 0.602417,0 0.803223,0c0.200806,0 0.602417,0 1.003998,0c0.401611,0 0.803223,0 1.004028,0c0.401611,0 0.803223,0 1.204834,0l0.200806,0l0.200775,0l0.200806,0" id="svg_59" fill-opacity="null" stroke-opacity="null" stroke-width="1.5" stroke="#000" fill="none"/>
  <path d="m409.839386,8.433728c0.200775,0 0.401581,0 0.602386,0c0.200806,0 0.401611,0 0.602417,0c0.200806,0 0.401611,0 0.602417,0c0.200806,0 0.401611,0 0.602417,0c0.200775,0 0.340027,0.09213 0.602386,0.200804c0.185516,0.076844 0.259613,0.058812 0.401611,0.200803c0.141998,0.14199 0,0.401607 0,0.602409c0,0.200804 -0.200806,0.401607 -0.401611,0.60241c-0.200806,0.200803 -0.366211,0.298445 -0.803192,0.401607c-0.195435,0.046139 -0.416901,-0.076844 -0.602417,0c-0.26236,0.108673 -0.401611,0.200803 -0.602417,0.200803c-0.200806,0 -0.416901,0.076844 -0.602417,0c-0.26236,-0.108673 -0.401581,-0.200803 -0.602386,-0.200803l0,-0.200804l-0.200806,0" id="svg_60" fill-opacity="null" stroke-opacity="null" stroke-width="1.5" stroke="#000" fill="none"/>
  <path d="m418.072296,7.228909c0,0.200803 0.200806,0.401607 0.200806,0.803213c0,0.200804 0,0.60241 0,0.803213c0,0.401607 0.200806,0.602409 0.200806,0.803213c0,0.401607 0,0.602409 0,0.803213c0,0.200803 -0.200806,0.602409 0,0.602409c0.200806,0 0,-0.401607 0,-0.602409c0,-0.200804 0.047119,-0.231375 0.200806,-0.60241c0.108673,-0.262363 0.238159,-0.339869 0.602417,-0.602409c0.230377,-0.166044 0.436371,-0.372028 0.602417,-0.602409c0.262512,-0.364252 0.607758,-0.556275 0.803192,-0.60241c0.437012,-0.103161 0.602417,-0.200803 0.803223,-0.401606c0.200806,-0.200803 0.401611,-0.200803 0.803223,-0.200803c0.200775,0 0.401581,-0.200803 0.602386,-0.200803l0.200806,0l-0.200806,0l-0.200806,0" id="svg_61" fill-opacity="null" stroke-opacity="null" stroke-width="1.5" stroke="#000" fill="none"/>
  <path d="m419.477936,8.433728c0.200806,0 0.416901,0.123971 0.602386,0.200804c0.26236,0.108673 0.401611,0.200803 0.602417,0.401607c0.200806,0.200803 0.324768,0.216088 0.401611,0.401606c0.108673,0.262363 0.460419,0.46042 0.602417,0.60241c0.141998,0.141989 0.200806,0.200803 0.401611,0.401607l0.200806,0l0,0.200803l0.200775,0" id="svg_62" fill-opacity="null" stroke-opacity="null" stroke-width="1.5" stroke="#000" fill="none"/>
  <path d="m427.108459,10.441761c0.200806,0 0.41687,0.076844 0.602386,0c0.26236,-0.108674 0.602417,-0.401607 0.803223,-0.60241c0.200806,-0.200803 0.339874,-0.438957 0.602417,-0.803212c0.166046,-0.230376 0.401611,-0.401607 0.602417,-0.60241c0.200806,-0.200803 0.200806,-0.401607 0.200806,-0.602409c0,-0.200803 0.061554,-0.493736 -0.200806,-0.60241c-0.185516,-0.076844 -0.401611,0 -0.803223,0c-0.200806,0 -0.401611,-0.200803 -0.803223,-0.200803c-0.200806,0 -0.401611,0 -0.602417,0c-0.200775,0 -0.632385,0.095234 -0.803192,0.200803c-0.381958,0.236058 -0.401611,0.401607 -0.602417,0.60241c-0.200806,0.200803 -0.401611,0.602409 -0.401611,1.004016c0,0.401607 0,0.602409 0,1.004016c0,0.200804 -0.046143,0.607782 0,0.803213c0.103149,0.436999 0.200806,0.602409 0.401611,0.803213c0.200806,0.200803 0.540863,0.694539 0.803223,0.803213c0.371033,0.153689 0.741638,0.493736 1.003998,0.602409c0.556549,0.230533 1.204834,0.200803 1.606445,0.200803c0.602386,0 1.003998,0 1.405609,0c0.401611,0 1.004028,0 1.40564,0c0.401581,0 0.767792,-0.097642 1.204803,-0.200803c0.390869,-0.09227 0.803223,0 1.004028,-0.200803l0.200806,-0.200804l0.200806,0" id="svg_63" fill-opacity="null" stroke-opacity="null" stroke-width="1.5" stroke="#000" fill="none"/>
  <path d="m397.188782,5.020074c0.200775,0 0.401581,0 0.602386,0c0.200806,0 0.602417,0 0.803223,0c0.200806,0 0.602417,0.200806 0.602417,0c0,-0.200806 -0.200806,0.200803 -0.401611,0.200803c-0.200806,0 -0.401611,0 -0.602417,0l-0.200806,0l-0.200806,0l-0.200806,0" id="svg_65" fill-opacity="null" stroke-opacity="null" stroke-width="1.5" stroke="#000" fill="none"/>
  <path d="m403.614471,5.020074c0.200806,0 0.401611,0 0.602417,0c0.200806,0 0.602417,0.200806 0.602417,0c0,-0.200806 -0.401611,0 -0.803223,0c-0.401611,0 -0.602417,0 -1.004028,0l-0.200806,0l-0.200806,0" id="svg_66" fill-opacity="null" stroke-opacity="null" stroke-width="1.5" stroke="#000" fill="none"/>
 </g>
</svg>